<?xml version="1.0" encoding="UTF-8"?><svg xmlns="http://www.w3.org/2000/svg" viewBox="0 0 64 64"><defs><style>.cls-1{fill:none;}.cls-2{fill:#fff;}.cls-3{fill:#0790e8;}</style></defs><title>Custom Action icon - Uncanny Automator</title><g id="Transparent_layer"><rect class="cls-1" width="64" height="64"/></g><g id="Background"><g id="Layer_2"><rect class="cls-3" width="64" height="64" rx="8" ry="8"/></g></g><g id="Custom_Action"><path class="cls-2" d="M51.25,12.75c0-1.11-.67-2.11-1.7-2.54s-2.21-.19-3,.59l-3.75,3.76c-4.12,4.12-9.72,6.44-15.55,6.44h-11.75c-3.03,0-5.5,2.47-5.5,5.5v8.25c0,3.03,2.47,5.5,5.5,5.5v11c0,1.52,1.23,2.75,2.75,2.75h5.5c1.52,0,2.75-1.23,2.75-2.75v-11h.75c5.83,0,11.43,2.32,15.55,6.44l3.75,3.75c.79.79,1.97,1.02,3,.59s1.7-1.43,1.7-2.54v-12.68c1.6-.76,2.75-2.79,2.75-5.19s-1.15-4.43-2.75-5.19v-12.67ZM45.75,19.35v22.56c-5.05-4.6-11.64-7.16-18.5-7.16h-.75v-8.25h.75c6.86,0,13.45-2.56,18.5-7.16Z"/></g></svg>