<?xml version="1.0" encoding="UTF-8"?><svg xmlns="http://www.w3.org/2000/svg" viewBox="0 0 64 64"><defs><style>.cls-1{fill:none;}.cls-2{fill:#fff;}.cls-3{fill:#0790e8;}</style></defs><title>Plugin Actions icon - Uncanny Automator</title><g id="Transparent_layer"><rect class="cls-1" width="64" height="64"/></g><g id="Background"><g id="Layer_2"><rect class="cls-3" width="64" height="64" rx="8" ry="8"/></g></g><g id="Plugin_Actions"><path class="cls-2" d="M17.33,12.44c-1.35,0-2.44,1.09-2.44,2.44v7.33h4.89v-7.33c0-1.35-1.09-2.44-2.44-2.44ZM32,12.44c-1.35,0-2.44,1.09-2.44,2.44v7.33h4.89v-7.33c0-1.35-1.09-2.44-2.44-2.44ZM12.44,24.67c-1.35,0-2.44,1.09-2.44,2.44s1.09,2.44,2.44,2.44v2.44c0,5.91,4.2,10.85,9.78,11.98v5.13c0,1.35,1.09,2.44,2.44,2.44s2.44-1.09,2.44-2.44v-5.13c.94-.19,1.84-.49,2.68-.88-.16-.82-.24-1.67-.24-2.54,0-6.13,4.11-11.31,9.72-12.92.04-.17.05-.34.05-.52,0-1.35-1.09-2.44-2.44-2.44H12.44ZM43,51.56c6.08,0,11-4.92,11-11s-4.92-11-11-11-11,4.92-11,11,4.92,11,11,11ZM46.66,34.37c.33.28.41.76.2,1.14l-2.3,4.13h2.72c.4,0,.75.25.87.63s0,.79-.32,1.02l-7.33,5.5c-.34.26-.82.24-1.15-.05s-.41-.76-.2-1.14l2.3-4.13h-2.72c-.4,0-.75-.25-.87-.63s0-.79.32-1.02l7.33-5.5c.34-.26.82-.24,1.15.05h0Z"/></g></svg>