<?xml version="1.0" encoding="UTF-8"?><svg xmlns="http://www.w3.org/2000/svg" viewBox="0 0 64 64"><title>DB Query icon - Uncanny Automator</title><g id="a"><rect width="64" height="64" style="fill:none; stroke-width:0px;"/></g><g id="b"><g id="c"><rect width="64" height="64" rx="8" ry="8" style="fill:#0790e8; stroke-width:0px;"/></g></g><g id="d"><path d="M51.25,16.88v4.12c0,3.8-8.62,6.88-19.25,6.88s-19.25-3.08-19.25-6.88v-4.12c0-3.8,8.62-6.88,19.25-6.88s19.25,3.08,19.25,6.88ZM46.54,28.45c1.79-.64,3.43-1.45,4.71-2.46v8.76c0,3.8-8.62,6.88-19.25,6.88s-19.25-3.08-19.25-6.88v-8.76c1.28,1.01,2.92,1.82,4.71,2.46,3.86,1.37,9,2.17,14.54,2.17s10.68-.8,14.54-2.17ZM12.75,39.74c1.28,1.01,2.92,1.82,4.71,2.46,3.86,1.37,9,2.17,14.54,2.17s10.68-.8,14.54-2.17c1.79-.64,3.43-1.45,4.71-2.46v7.38c0,3.8-8.62,6.88-19.25,6.88s-19.25-3.08-19.25-6.88v-7.38Z" style="fill:#fff; stroke-width:0px;"/></g></svg>