<?xml version="1.0" encoding="UTF-8"?><svg xmlns="http://www.w3.org/2000/svg" viewBox="0 0 64 64"><defs><style>.cls-1{fill:none;}.cls-2,.cls-3{fill:#fff;}.cls-4{fill:#0790e8;}.cls-3{isolation:isolate;opacity:.4;}</style></defs><title>QR Code icon - Uncanny Automator</title><g id="Transparent_layer"><rect class="cls-1" width="64" height="64"/></g><g id="Background"><g id="Layer_2"><rect class="cls-4" width="64" height="64" rx="8" ry="8"/></g></g><g id="QR_Code"><path class="cls-3" d="M10,14.71v9.43c0,2.6,2.11,4.71,4.71,4.71h9.43c2.6,0,4.71-2.11,4.71-4.71v-9.43c0-2.6-2.11-4.71-4.71-4.71h-9.43c-2.6,0-4.71,2.11-4.71,4.71ZM10,39.86v9.43c0,2.6,2.11,4.71,4.71,4.71h9.43c2.6,0,4.71-2.11,4.71-4.71v-9.43c0-2.6-2.11-4.71-4.71-4.71h-9.43c-2.6,0-4.71,2.11-4.71,4.71ZM16.29,16.29h6.29v6.29h-6.29v-6.29ZM16.29,41.43h6.29v6.29h-6.29v-6.29ZM35.14,14.71v9.43c0,2.6,2.11,4.71,4.71,4.71h9.43c2.6,0,4.71-2.11,4.71-4.71v-9.43c0-2.6-2.11-4.71-4.71-4.71h-9.43c-2.6,0-4.71,2.11-4.71,4.71ZM41.43,16.29h6.29v6.29h-6.29v-6.29Z"/><path class="cls-2" d="M35.14,52.43v-15.71c0-.86.71-1.57,1.57-1.57h6.29c.86,0,1.57.71,1.57,1.57s.71,1.57,1.57,1.57h3.14c.86,0,1.57-.71,1.57-1.57s.71-1.57,1.57-1.57,1.57.71,1.57,1.57v9.43c0,.86-.71,1.57-1.57,1.57h-6.29c-.86,0-1.57-.71-1.57-1.57s-.71-1.57-1.57-1.57-1.57.71-1.57,1.57v6.29c0,.86-.71,1.57-1.57,1.57h-3.14c-.86,0-1.57-.71-1.57-1.57ZM47.71,52.43c0,.87-.7,1.57-1.57,1.57s-1.57-.7-1.57-1.57.7-1.57,1.57-1.57,1.57.7,1.57,1.57ZM54,52.43c0,.87-.7,1.57-1.57,1.57s-1.57-.7-1.57-1.57.7-1.57,1.57-1.57,1.57.7,1.57,1.57Z"/></g></svg>