<?xml version="1.0" encoding="UTF-8"?>
<svg xmlns="http://www.w3.org/2000/svg" width="247" height="105" viewBox="0 0 247 105" fill="none">
  <path d="M0 103.984V64H6.03271V98.7906H24.1503V103.984H0Z" fill="#1E1E1E"></path>
  <path d="M37.9904 104.589C35.0359 104.589 32.4914 103.958 30.3568 102.695C28.2353 101.42 26.5953 99.6301 25.4369 97.3263C24.2916 95.0095 23.7189 92.2958 23.7189 89.1851C23.7189 86.1134 24.2916 83.4062 25.4369 81.0634C26.5953 78.7206 28.2092 76.8919 30.2787 75.5773C32.3612 74.2628 34.7951 73.6055 37.5804 73.6055C39.2725 73.6055 40.9124 73.8853 42.5003 74.445C44.0882 75.0046 45.5134 75.8832 46.7759 77.0806C48.0384 78.2781 49.0341 79.8334 49.763 81.7467C50.4919 83.647 50.8563 85.9572 50.8563 88.6775V90.7469H27.0183V86.3737H45.136C45.136 84.8379 44.8236 83.4778 44.1988 82.2934C43.5741 81.0959 42.6955 80.1523 41.5632 79.4625C40.4439 78.7726 39.1293 78.4277 37.6195 78.4277C35.9795 78.4277 34.5478 78.8312 33.3244 79.6382C32.1139 80.4321 31.1768 81.4734 30.513 82.7619C29.8622 84.0374 29.5368 85.4236 29.5368 86.9204V90.337C29.5368 92.3414 29.8883 94.0464 30.5911 95.4521C31.3069 96.8577 32.3026 97.9315 33.5782 98.6734C34.8537 99.4023 36.344 99.7667 38.049 99.7667C39.1553 99.7667 40.164 99.6105 41.0751 99.2982C41.9862 98.9728 42.7736 98.4912 43.4374 97.8534C44.1012 97.2157 44.6088 96.4282 44.9603 95.4911L50.4854 96.4868C50.0428 98.1137 49.2489 99.539 48.1035 100.762C46.9712 101.973 45.546 102.916 43.8279 103.593C42.1229 104.257 40.177 104.589 37.9904 104.589Z" fill="#1E1E1E"></path>
  <path d="M63.861 104.648C61.9607 104.648 60.2427 104.296 58.7068 103.593C57.171 102.877 55.954 101.843 55.056 100.489C54.1709 99.1355 53.7284 97.476 53.7284 95.5106C53.7284 93.8186 54.0538 92.426 54.7045 91.3326C55.3553 90.2393 56.2339 89.3738 57.3402 88.736C58.4465 88.0983 59.683 87.6167 61.0496 87.2913C62.4162 86.9659 63.8089 86.7186 65.2276 86.5494C67.0238 86.3412 68.4815 86.172 69.6008 86.0418C70.7202 85.8987 71.5336 85.6709 72.0412 85.3585C72.5489 85.0461 72.8027 84.5385 72.8027 83.8357V83.699C72.8027 81.994 72.3211 80.6729 71.3579 79.7358C70.4078 78.7987 68.9891 78.3301 67.1018 78.3301C65.1365 78.3301 63.5876 78.7661 62.4553 79.6382C61.336 80.4972 60.5615 81.4538 60.132 82.5081L54.646 81.2586C55.2967 79.4364 56.2469 77.9657 57.4964 76.8463C58.7589 75.714 60.2101 74.894 61.8501 74.3864C63.49 73.8658 65.2146 73.6055 67.0238 73.6055C68.2212 73.6055 69.4902 73.7486 70.8308 74.035C72.1844 74.3083 73.4469 74.8159 74.6183 75.5578C75.8027 76.2997 76.7724 77.3605 77.5273 78.7401C78.2822 80.1067 78.6597 81.8834 78.6597 84.07V103.984H72.9588V99.8839H72.7246C72.3471 100.639 71.7809 101.381 71.026 102.11C70.2711 102.838 69.3015 103.444 68.1171 103.925C66.9326 104.407 65.5139 104.648 63.861 104.648ZM65.13 99.962C66.7439 99.962 68.1236 99.6431 69.2689 99.0053C70.4273 98.3676 71.3059 97.5346 71.9046 96.5063C72.5163 95.4651 72.8222 94.3523 72.8222 93.1678V89.3022C72.6139 89.5105 72.2104 89.7057 71.6117 89.8879C71.026 90.0571 70.3557 90.2068 69.6008 90.337C68.8459 90.4541 68.1105 90.5647 67.3947 90.6689C66.6788 90.76 66.0801 90.8381 65.5985 90.9031C64.4662 91.0463 63.4315 91.2871 62.4943 91.6255C61.5702 91.9639 60.8284 92.452 60.2687 93.0897C59.722 93.7145 59.4487 94.5475 59.4487 95.5887C59.4487 97.0335 59.9823 98.1268 61.0496 98.8687C62.1169 99.5975 63.477 99.962 65.13 99.962Z" fill="#1E1E1E"></path>
  <path d="M83.6859 103.984V73.9959H89.3282V78.7596H89.6405C90.1872 77.1457 91.1503 75.8767 92.53 74.9526C93.9227 74.0155 95.4975 73.5469 97.2546 73.5469C97.6191 73.5469 98.0486 73.5599 98.5432 73.586C99.0508 73.612 99.4478 73.6445 99.7341 73.6836V79.2672C99.4998 79.2022 99.0833 79.1306 98.4846 79.0525C97.8859 78.9614 97.2872 78.9158 96.6885 78.9158C95.3088 78.9158 94.0788 79.2087 92.9986 79.7944C91.9313 80.3671 91.0853 81.1675 90.4605 82.1957C89.8358 83.2109 89.5234 84.3693 89.5234 85.6709V103.984H83.6859Z" fill="#1E1E1E"></path>
  <path d="M108.424 86.1785V103.984H102.587V73.9959H108.19V78.8768H108.561C109.251 77.2889 110.331 76.0134 111.802 75.0502C113.285 74.0871 115.153 73.6055 117.405 73.6055C119.448 73.6055 121.238 74.035 122.774 74.894C124.31 75.74 125.501 77.0025 126.347 78.6815C127.193 80.3605 127.616 82.4365 127.616 84.9095V103.984H121.778V85.6123C121.778 83.4387 121.212 81.7402 120.08 80.5167C118.947 79.2803 117.392 78.662 115.413 78.662C114.06 78.662 112.856 78.9549 111.802 79.5406C110.76 80.1263 109.934 80.9853 109.322 82.1176C108.723 83.237 108.424 84.5906 108.424 86.1785Z" fill="#1E1E1E"></path>
  <path d="M145.558 103.984H132.614V64H145.968C149.886 64 153.25 64.8005 156.062 66.4014C158.873 67.9893 161.027 70.2735 162.524 73.2541C164.034 76.2216 164.789 79.7814 164.789 83.9333C164.789 88.0983 164.027 91.6776 162.504 94.6711C160.995 97.6647 158.808 99.9685 155.945 101.582C153.081 103.183 149.619 103.984 145.558 103.984ZM138.647 98.7125H145.226C148.272 98.7125 150.804 98.1398 152.821 96.9944C154.838 95.836 156.348 94.1635 157.35 91.9769C158.353 89.7773 158.854 87.0961 158.854 83.9333C158.854 80.7966 158.353 78.1349 157.35 75.9483C156.361 73.7617 154.884 72.1022 152.919 70.9698C150.953 69.8375 148.513 69.2713 145.597 69.2713H138.647V98.7125Z" fill="#1E1E1E"></path>
  <path d="M176.7 104.648C174.8 104.648 173.082 104.296 171.546 103.593C170.01 102.877 168.794 101.843 167.895 100.489C167.01 99.1355 166.568 97.476 166.568 95.5106C166.568 93.8186 166.893 92.426 167.544 91.3326C168.195 90.2393 169.073 89.3738 170.18 88.736C171.286 88.0983 172.522 87.6167 173.889 87.2913C175.256 86.9659 176.648 86.7186 178.067 86.5494C179.863 86.3412 181.321 86.172 182.44 86.0418C183.56 85.8987 184.373 85.6709 184.881 85.3585C185.388 85.0461 185.642 84.5385 185.642 83.8357V83.699C185.642 81.994 185.161 80.6729 184.197 79.7358C183.247 78.7987 181.829 78.3301 179.941 78.3301C177.976 78.3301 176.427 78.7661 175.295 79.6382C174.175 80.4972 173.401 81.4538 172.972 82.5081L167.485 81.2586C168.136 79.4364 169.086 77.9657 170.336 76.8463C171.598 75.714 173.05 74.894 174.69 74.3864C176.33 73.8658 178.054 73.6055 179.863 73.6055C181.061 73.6055 182.33 73.7486 183.67 74.035C185.024 74.3083 186.286 74.8159 187.458 75.5578C188.642 76.2997 189.612 77.3605 190.367 78.7401C191.122 80.1067 191.499 81.8834 191.499 84.07V103.984H185.798V99.8839H185.564C185.187 100.639 184.62 101.381 183.866 102.11C183.111 102.838 182.141 103.444 180.957 103.925C179.772 104.407 178.353 104.648 176.7 104.648ZM177.969 99.962C179.583 99.962 180.963 99.6431 182.108 99.0053C183.267 98.3676 184.145 97.5346 184.744 96.5063C185.356 95.4651 185.662 94.3523 185.662 93.1678V89.3022C185.453 89.5105 185.05 89.7057 184.451 89.8879C183.866 90.0571 183.195 90.2068 182.44 90.337C181.685 90.4541 180.95 90.5647 180.234 90.6689C179.518 90.76 178.92 90.8381 178.438 90.9031C177.306 91.0463 176.271 91.2871 175.334 91.6255C174.41 91.9639 173.668 92.452 173.108 93.0897C172.562 93.7145 172.288 94.5475 172.288 95.5887C172.288 97.0335 172.822 98.1268 173.889 98.8687C174.956 99.5975 176.317 99.962 177.969 99.962Z" fill="#1E1E1E"></path>
  <path d="M217.897 81.3172L212.606 82.2543C212.385 81.5775 212.034 80.9332 211.552 80.3215C211.084 79.7098 210.446 79.2087 209.639 78.8182C208.832 78.4277 207.823 78.2325 206.613 78.2325C204.96 78.2325 203.58 78.6034 202.474 79.3453C201.367 80.0742 200.814 81.0178 200.814 82.1762C200.814 83.1784 201.185 83.9854 201.927 84.5971C202.669 85.2088 203.866 85.7099 205.519 86.1004L210.283 87.1937C213.042 87.8315 215.099 88.8141 216.453 90.1417C217.806 91.4693 218.483 93.1939 218.483 95.3154C218.483 97.1116 217.962 98.7125 216.921 100.118C215.893 101.511 214.455 102.604 212.606 103.398C210.771 104.192 208.643 104.589 206.222 104.589C202.864 104.589 200.125 103.873 198.003 102.441C195.881 100.997 194.58 98.9467 194.098 96.2916L199.741 95.4325C200.092 96.9033 200.814 98.0161 201.908 98.771C203.001 99.5129 204.426 99.8839 206.183 99.8839C208.097 99.8839 209.626 99.4869 210.771 98.6929C211.917 97.886 212.489 96.9033 212.489 95.7449C212.489 94.8078 212.138 94.0204 211.435 93.3826C210.745 92.7448 209.684 92.2633 208.253 91.9379L203.177 90.825C200.378 90.1873 198.309 89.1721 196.968 87.7794C195.641 86.3867 194.977 84.6231 194.977 82.4886C194.977 80.7185 195.471 79.1696 196.461 77.842C197.45 76.5144 198.816 75.4797 200.561 74.7378C202.305 73.9829 204.302 73.6055 206.554 73.6055C209.795 73.6055 212.346 74.3083 214.207 75.714C216.069 77.1067 217.299 78.9744 217.897 81.3172Z" fill="#1E1E1E"></path>
  <path d="M227.44 86.1785V103.984H221.603V64H227.362V78.8768H227.733C228.436 77.2628 229.51 75.9808 230.954 75.0307C232.399 74.0805 234.286 73.6055 236.616 73.6055C238.672 73.6055 240.469 74.0285 242.004 74.8745C243.553 75.7205 244.751 76.983 245.597 78.662C246.456 80.328 246.885 82.4105 246.885 84.9095V103.984H241.048V85.6123C241.048 83.4127 240.482 81.7077 239.349 80.4972C238.217 79.2737 236.642 78.662 234.625 78.662C233.245 78.662 232.008 78.9549 230.915 79.5406C229.835 80.1263 228.982 80.9853 228.358 82.1176C227.746 83.237 227.44 84.5906 227.44 86.1785Z" fill="#1E1E1E"></path>
  <path d="M123.82 12.2012C123.152 12.1997 122.491 12.3301 121.874 12.5849C121.257 12.8396 120.697 13.2137 120.225 13.6856C119.753 14.1576 119.379 14.7181 119.124 15.335C118.869 15.9519 118.739 16.613 118.74 17.2805V46.652C118.747 46.8987 118.848 47.1334 119.023 47.308C119.198 47.4825 119.432 47.5836 119.679 47.5906C122.123 47.5862 124.466 46.6134 126.194 44.8853C127.922 43.1571 128.895 40.8145 128.899 38.3706V17.2805C128.9 16.613 128.77 15.9519 128.515 15.335C128.261 14.7181 127.887 14.1576 127.415 13.6856C126.943 13.2137 126.382 12.8396 125.765 12.5849C125.148 12.3301 124.487 12.1997 123.82 12.2012Z" fill="#1E1E1E"></path>
  <path d="M109.079 26.5558C108.412 26.5543 107.751 26.6847 107.134 26.9395C106.517 27.1942 105.956 27.5683 105.484 28.0402C105.013 28.5122 104.638 29.0727 104.384 29.6896C104.129 30.3065 103.999 30.9677 104 31.6351V47.2042C104.007 47.4509 104.108 47.6856 104.283 47.8602C104.457 48.0347 104.692 48.1358 104.939 48.1428C107.383 48.1384 109.725 47.1656 111.453 45.4375C113.181 43.7093 114.154 41.3667 114.159 38.9228V31.6351C114.16 30.9677 114.03 30.3065 113.775 29.6896C113.52 29.0727 113.146 28.5122 112.674 28.0402C112.202 27.5683 111.642 27.1942 111.025 26.9395C110.408 26.6847 109.747 26.5543 109.079 26.5558Z" fill="#1E1E1E"></path>
  <path d="M138.562 1.20556e-05C137.894 -0.00144363 137.233 0.128942 136.616 0.383685C135.999 0.638427 135.439 1.01251 134.967 1.48445C134.495 1.9564 134.121 2.51692 133.866 3.13382C133.611 3.75072 133.481 4.41187 133.482 5.0793V46.9834C133.489 47.2302 133.591 47.4649 133.765 47.6394C133.94 47.8139 134.174 47.915 134.421 47.922C136.865 47.9176 139.208 46.9448 140.936 45.2167C142.664 43.4885 143.637 41.1459 143.641 38.702V5.0793C143.642 4.41187 143.512 3.75072 143.257 3.13382C143.003 2.51692 142.629 1.9564 142.157 1.48445C141.685 1.01251 141.124 0.638427 140.507 0.383685C139.89 0.128942 139.229 -0.00144363 138.562 1.20556e-05Z" fill="#1E1E1E"></path>
</svg>
