<?xml version="1.0" encoding="UTF-8"?><svg xmlns="http://www.w3.org/2000/svg" viewBox="0 0 64 64"><title>Formatter icon - Uncanny Automator</title><g id="a"><rect width="64" height="64" style="fill:none;"/></g><g id="b"><g id="c"><rect width="64" height="64" rx="8" ry="8" style="fill:#0790e8;"/></g></g><g id="d"><path d="m52.08,37.58c.59.54.82,1.37.55,2.12-.38,1.02-.83,2-1.36,2.95l-.4.69c-.57.94-1.2,1.84-1.9,2.68-.5.62-1.35.83-2.1.58l-4.79-1.52c-1.15.88-2.43,1.62-3.78,2.18l-1.08,4.91c-.17.78-.77,1.4-1.56,1.53-1.19.2-2.41.3-3.66.3s-2.46-.1-3.65-.3c-.79-.13-1.39-.75-1.56-1.53l-1.08-4.91c-1.35-.56-2.63-1.3-3.78-2.18l-4.78,1.53c-.76.24-1.6.03-2.1-.58-.7-.84-1.33-1.73-1.9-2.68l-.41-.69c-.52-.95-.98-1.92-1.35-2.95-.28-.75-.04-1.58.55-2.12l3.72-3.38c-.09-.72-.14-1.45-.14-2.19s.06-1.47.14-2.18l-3.72-3.39c-.59-.54-.83-1.37-.55-2.12.38-1.02.83-2,1.35-2.95l.41-.69c.57-.94,1.2-1.84,1.9-2.68.5-.62,1.35-.83,2.1-.58l4.78,1.52c1.15-.88,2.43-1.62,3.78-2.18l1.08-4.91c.17-.78.77-1.4,1.56-1.53,1.19-.21,2.41-.32,3.66-.32s2.47.11,3.65.3c.79.13,1.4.75,1.57,1.53l1.07,4.91c1.35.56,2.63,1.29,3.78,2.18l4.79-1.52c.76-.24,1.6-.03,2.11.58.69.85,1.33,1.74,1.9,2.68l.41.69c.52.95.98,1.92,1.35,2.95h0c.27.76.04,1.59-.55,2.12l-3.72,3.39c.09.71.14,1.44.14,2.18s-.06,1.47-.14,2.19l3.72,3.38Z" style="fill:#fff;"/><path d="m23.3,33.29h5.16c.39,0,.75.23.89.6s.07.78-.21,1.06l-1.66,1.66c2.52,2.48,6.57,2.47,9.08-.04.71-.7,1.21-1.53,1.52-2.41.24-.67.97-1.02,1.64-.79s1.02.97.79,1.64c-.44,1.23-1.15,2.39-2.13,3.37-3.51,3.51-9.19,3.52-12.72.04l-1.68,1.68c-.28.28-.69.36-1.06.21s-.6-.5-.6-.89v-5.16c0-.54.43-.97.97-.97Zm2.62-3.44c-.24.67-.97,1.02-1.64.79s-1.02-.97-.79-1.64c.44-1.24,1.14-2.39,2.13-3.38,3.51-3.51,9.19-3.52,12.72-.04l1.68-1.68c.28-.28.69-.36,1.06-.21s.6.5.6.89v5.16c0,.54-.43.97-.97.97h-5.16c-.39,0-.75-.23-.89-.6s-.07-.78.21-1.06l1.66-1.66c-2.52-2.48-6.57-2.47-9.08.04-.71.7-1.21,1.53-1.52,2.41Z" style="fill:#0790e8;"/></g></svg>