<?xml version="1.0" encoding="UTF-8"?><svg xmlns="http://www.w3.org/2000/svg" viewBox="0 0 64 64"><title>MailerLite icon - Uncanny Automator</title><g id="a"><rect width="64" height="64" style="fill:none;"/></g><g id="b"><g><path d="M56.92,6.14H7.03C3.14,6.14,0,9.28,0,13.18V57.86l9.71-9.61H56.97c3.89,0,7.03-3.14,7.03-7.03V13.18c-.05-3.89-3.19-7.03-7.08-7.03ZM14.96,37.65c0,1.03-.84,1.88-1.88,1.88s-1.88-.84-1.88-1.88V17.72c0-1.03,.84-1.88,1.88-1.88s1.88,.84,1.88,1.88v19.93Zm8.72,0c0,1.03-.84,1.88-1.88,1.88s-1.88-.84-1.88-1.88v-13.18c0-1.03,.84-1.88,1.88-1.88s1.88,.84,1.88,1.88v13.18Zm.23-19.18c0,1.13-.89,2.02-2.02,2.02h-.19c-1.13,0-2.02-.89-2.02-2.02v-.14c0-1.13,.89-2.02,2.02-2.02h.19c1.13,0,2.02,.89,2.02,2.02v.14Zm13.22,20.58c-.84,.42-1.78,.61-2.77,.61-3.24,0-4.97-1.55-4.97-4.5v-9.05h-1.69c-.56,0-1.03-.42-1.03-.98v-.05c0-.33,.19-.66,.47-.89l4.17-4.08c.23-.23,.52-.38,.84-.42,.56,0,1.08,.47,1.08,1.03v2.02h3c.94,0,1.69,.75,1.69,1.69s-.75,1.69-1.69,1.69h-3v8.81c0,1.27,.66,1.36,1.55,1.36,.38,0,.75-.05,1.08-.14,.23-.09,.52-.09,.75-.14,.84,0,1.55,.7,1.59,1.59-.09,.61-.52,1.22-1.08,1.45h0Zm11.49-2.91c1.36,.05,2.72-.28,3.94-.89,.23-.14,.52-.19,.75-.19,.94,0,1.69,.7,1.69,1.64v.05c-.05,.66-.42,1.27-1.03,1.55-1.31,.75-2.72,1.41-5.63,1.41-5.25,0-8.44-3.24-8.44-8.63,0-6.33,4.22-8.63,7.78-8.63,5.35,0,7.78,4.27,7.78,8.21,.05,.98-.75,1.83-1.73,1.88h-9.99c.52,2.34,2.2,3.61,4.88,3.61Z" style="fill:#21c16c;"/><path d="M47.78,25.79c-2.06-.05-3.8,1.5-3.99,3.56h8.02c-.23-2.06-1.97-3.61-4.03-3.56Z" style="fill:#21c16c;"/></g></g></svg>