<?xml version="1.0" encoding="UTF-8"?><svg xmlns="http://www.w3.org/2000/svg" viewBox="0 0 64 64"><defs><style>.cls-1{fill:none;}.cls-2{fill:#fff;}.cls-3{fill:#0790e8;}</style></defs><title>XML icon - Uncanny Automator</title><g id="Transparent_layer"><rect class="cls-1" width="64" height="64"/></g><g id="Background"><g id="Layer_2"><rect class="cls-3" width="64" height="64" rx="8" ry="8"/></g></g><g id="XML"><path class="cls-2" d="M34.74,10v.24c0,3.54,0,7.07,0,10.61,0,.48.05.95.27,1.39.4.82,1.05,1.3,1.94,1.46.24.04.48.05.72.05,3.53,0,7.06,0,10.59,0h.24c0,.07,0,.12,0,.18,0,8.16,0,16.31,0,24.47,0,1.65-.62,3.07-1.87,4.18-.95.85-2.06,1.29-3.33,1.38-.31.02-.62.03-.93.03-7.07,0-14.14,0-21.22,0-1.33,0-2.54-.38-3.58-1.24-1.08-.9-1.78-2.03-1.98-3.44-.06-.4-.09-.81-.09-1.22,0-10.81,0-21.61,0-32.42,0-1.33.37-2.55,1.23-3.6.9-1.09,2.03-1.79,3.44-1.98.42-.06.85-.09,1.28-.09,4.35,0,8.71,0,13.06,0,.07,0,.13,0,.22,0Z"/><path class="cls-2" d="M37.51,10.07c3.64,3.64,7.28,7.28,10.91,10.91h-10.91v-10.91Z"/><path class="cls-3" d="M25.95,37.52c.07.05.13.08.17.12.82.82,1.64,1.63,2.45,2.46.43.44.7.96.67,1.59-.04.71-.34,1.29-.96,1.67-.32.2-.66.33-1.03.34-.46.02-.88-.14-1.25-.4-.17-.12-.33-.26-.48-.4-1.29-1.28-2.58-2.56-3.85-3.86-.43-.43-.68-.95-.67-1.57.01-.57.25-1.06.64-1.46,1.34-1.36,2.68-2.71,4.04-4.04.42-.41.94-.66,1.55-.65.43.01.81.17,1.15.41.89.63,1.17,1.91.41,2.92-.1.14-.22.27-.34.39-.78.78-1.55,1.56-2.33,2.33-.04.04-.09.08-.18.15Z"/><path class="cls-3" d="M38.01,37.5c-.87-.87-1.72-1.72-2.57-2.57-.33-.33-.55-.72-.65-1.18-.13-.58.03-1.11.36-1.57.42-.58,1.01-.86,1.73-.86.41,0,.78.16,1.11.39.17.12.33.26.48.4,1.29,1.28,2.58,2.56,3.85,3.86.43.43.69.95.67,1.57,0,.57-.25,1.06-.64,1.46-1.34,1.36-2.69,2.71-4.04,4.04-.4.4-.91.65-1.49.65-.76,0-1.59-.48-1.92-1.31-.34-.89-.09-1.64.52-2.29.8-.84,1.63-1.64,2.45-2.46.04-.04.08-.08.13-.13Z"/></g></svg>