<?xml version="1.0" encoding="UTF-8"?><svg xmlns="http://www.w3.org/2000/svg" viewBox="0 0 64 64"><title>Typeform icon - Uncanny Automator</title><g id="a"><rect width="64" height="64" style="fill:none;"/></g><g id="b"><path d="m41.34,34.76c-1.33,0-2.02-1.1-2.02-2.44s.67-2.38,2.02-2.38,2.02,1.08,2.02,2.38c-.01,1.37-.7,2.44-2.02,2.44Zm-13.04-4.83c.78,0,1.1.45,1.1.85,0,.95-.97,1.37-3,1.43,0-1.18.67-2.28,1.9-2.28Zm-8.64,4.83c-1.26,0-1.79-1.03-1.79-2.44s.54-2.38,1.79-2.38,1.87,1.01,1.87,2.38-.62,2.44-1.87,2.44Zm-10.66-6.22h-1.97l3.26,7.49c-.62,1.38-.96,1.73-1.39,1.73-.46,0-.89-.37-1.2-.69l-.86,1.14c.59.62,1.39.98,2.22.98,1.03,0,1.82-.6,2.28-1.67l3.77-8.99h-1.93l-1.97,5.37-2.21-5.35Zm52.14,1.39c.96,0,1.15.66,1.15,2.19v4.04h1.7v-5.1c0-1.84-1.26-2.63-2.42-2.63-1.03,0-1.98.64-2.51,1.84-.3-1.14-1.26-1.84-2.38-1.84-.97,0-1.94.62-2.47,1.78v-1.67h-1.7v7.62h1.7v-3.25c0-1.65.86-2.97,2.04-2.97.96,0,1.14.66,1.14,2.19v4.04h1.7v-3.27c-.01-1.65.86-2.97,2.04-2.97Zm-13.65-1.39h-.81v7.62h1.7v-2.92c0-1.85.82-3.1,2.03-3.1.31,0,.58.01.86.13l.26-1.8c-.22-.02-.41-.05-.6-.05-1.2,0-2.06.82-2.57,1.88v-1.76h-.88Zm-6.15-.12c-2.26,0-3.78,1.72-3.78,3.89s1.55,3.93,3.78,3.93,3.82-1.73,3.82-3.93c-.01-2.18-1.58-3.89-3.82-3.89Zm-12.94,6.34c-.89,0-1.55-.45-1.82-1.37,2.26-.1,4.47-.64,4.47-2.63,0-1.14-1.13-2.33-2.75-2.33-2.18,0-3.66,1.78-3.66,3.89s1.45,3.93,3.62,3.93c1.51,0,2.47-.61,3.23-1.49l-.83-1.12c-.88.89-1.42,1.12-2.26,1.12Zm-8.4-6.34c-.86,0-1.73.5-2.06,1.29v-1.17h-1.7v10.61h1.7v-3.79c.36.55,1.19.91,1.92.91,2.27,0,3.47-1.68,3.47-3.95-.01-2.24-1.19-3.9-3.32-3.9Zm-11.95-2.93H0v1.66h3.14v9.01h1.79v-9.01h3.11v-1.66Zm25.34,3.05h-1.02v1.53h1.02v6.09h1.7v-6.09h1.66v-1.53h-1.66v-1.19c0-.76.31-1.03,1.02-1.03.26,0,.5.07.83.18l.38-1.43c-.31-.18-.94-.25-1.34-.25-1.63,0-2.59.98-2.59,2.67v1.05Z" style="fill:#131313;"/></g></svg>