<?xml version="1.0" encoding="UTF-8"?><svg xmlns="http://www.w3.org/2000/svg" viewBox="0 0 64 64"><title>ThriveCart icon - Uncanny Automator</title><g id="a"><rect x="0" width="64" height="64" style="fill:none;"/></g><g id="b"><path d="m60.26,4.63c.7-.12,1.59.11,2.48.03.7-.06,1.19.51,1.26,1.26.1,1.15-5.62,32.95-6,34.76-.27,1.33-1.21,1.94-2.58,1.99-1.16.04-2.32.21-3.49,0-1.3-.23-1.78-.98-1.54-2.29.32-1.71,5.59-32.05,5.95-33.6.39-1.64,1.06-2.14,2.72-2.15.33,0,.66,0,1.19,0Z" style="fill:#00c7c7;"/><path d="m13.02,12.2c.06.01.12.02.18.03,1.33.15,1.98.82,2.23,2.26.55,3.1,4.46,25.62,4.58,26.15.23,1.01-.44,1.97-1.49,2.02-.91.05-1.83.05-2.75-.02-1.29-.1-2.21-1.08-2.47-2.84-.31-2.18-3.33-18.75-3.51-20.17-.08-.66-.26-.99-1.02-.97-1.93.05-3.87-.02-5.8.03-.97.03-2.17-.94-2.4-1.85-.26-1.05-.33-2.12-.58-3.16-.12-.48.56-1.36,1.11-1.41.5-.04,11.37-.18,11.9-.09Z" style="fill:#01a0a0;"/><path d="m45.75,15.95c.61,0,1.22-.02,1.83,0,1.61.07,2.01,1.06,1.71,2.61-.28,1.43-3.73,21.01-3.89,21.65-.44,1.8-1.24,2.6-3.11,2.5-.86-.04-1.73,0-2.59-.03-1.46-.05-2.13-.75-1.95-2.17.17-1.38,3.59-20.71,3.91-22.13.42-1.88,1.07-2.43,2.95-2.45.38,0,.76,0,1.14,0,0,0,0,0,0,0Z" style="fill:#00c7c7;"/><path d="m32.68,27.43c1.63-.19,2.4.68,2.05,2.4-.38,1.88-1.68,9.21-1.95,10.99-.16,1.04-1.16,1.83-2.22,1.85-1.2.03-2.39.04-3.59,0-1.26-.04-1.95-1.01-1.74-2.23.45-2.64.97-5.27,1.39-7.91.19-1.22.29-2.47.77-3.63.42-1.01,1.19-1.45,2.25-1.44.05.06,2.99.06,3.03,0Z" style="fill:#01a0a0;"/><circle cx="18" cy="54.9" r="4.5" style="fill:#01a0a0;"/><circle cx="53" cy="54.9" r="4.5" style="fill:#01a0a0;"/></g></svg>