<?xml version="1.0" encoding="UTF-8"?><svg xmlns="http://www.w3.org/2000/svg" viewBox="0 0 64 64"><defs><style>.cls-1{fill:none;}.cls-2{stroke:#0790e8;stroke-miterlimit:10;}.cls-2,.cls-3{fill:#0790e8;}.cls-4{fill:#fff;}</style></defs><title>JSON icon - Uncanny Automator</title><g id="Transparent_layer"><rect class="cls-1" width="64" height="64"/></g><g id="Background"><g id="Layer_2"><rect class="cls-3" width="64" height="64" rx="8" ry="8"/></g></g><g id="JSON"><path class="cls-4" d="M34.74,10v.24c0,3.54,0,7.07,0,10.61,0,.48.05.95.27,1.39.4.82,1.05,1.3,1.94,1.46.24.04.48.05.72.05,3.53,0,7.06,0,10.59,0h.24c0,.07,0,.12,0,.18,0,8.16,0,16.31,0,24.47,0,1.65-.62,3.07-1.87,4.18-.95.85-2.06,1.29-3.33,1.38-.31.02-.62.03-.93.03-7.07,0-14.14,0-21.22,0-1.33,0-2.54-.38-3.58-1.24-1.08-.9-1.78-2.03-1.98-3.44-.06-.4-.09-.81-.09-1.22,0-10.81,0-21.61,0-32.42,0-1.33.37-2.55,1.23-3.6.9-1.09,2.03-1.79,3.44-1.98.42-.06.85-.09,1.28-.09,4.35,0,8.71,0,13.06,0,.07,0,.13,0,.22,0Z"/><path class="cls-4" d="M37.51,10.07c3.64,3.64,7.28,7.28,10.91,10.91h-10.91v-10.91Z"/><path class="cls-2" d="M39.48,37.5c-.22-.22-.43-.42-.64-.64-.15-.16-.3-.33-.43-.51-.28-.39-.46-.83-.52-1.31-.03-.21-.04-.43-.04-.64,0-.33,0-.66,0-.99,0-.33-.11-.62-.37-.83-.2-.16-.42-.22-.67-.22-.33,0-.66,0-.99,0-.21,0-.41-.04-.58-.15-.26-.16-.42-.4-.46-.71-.04-.26,0-.51.14-.74.16-.26.4-.43.71-.45.58-.03,1.17-.06,1.75.04.67.11,1.24.42,1.7.92.42.45.68.98.78,1.59.03.2.05.41.05.61,0,.36,0,.72,0,1.08,0,.22.04.42.17.61.05.07.1.13.16.19.46.45.92.9,1.38,1.35.35.35.44.76.27,1.23-.05.14-.14.25-.24.36-.45.45-.9.9-1.36,1.33-.26.25-.37.53-.37.89,0,.36,0,.72,0,1.08,0,.42-.07.82-.23,1.21-.21.52-.54.95-.99,1.29-.45.34-.95.54-1.51.6-.52.05-1.03.04-1.55.02-.39-.02-.74-.34-.83-.72-.07-.3-.05-.6.12-.86.16-.26.41-.42.72-.44.38-.02.76-.01,1.15-.02.16,0,.31-.02.45-.08.29-.12.49-.33.57-.64.03-.11.04-.23.04-.35,0-.34,0-.68,0-1.02,0-.53.1-1.05.34-1.53.15-.31.35-.58.59-.83.22-.22.43-.43.65-.65.02-.02.04-.04.06-.06Z"/><path class="cls-2" d="M24.5,37.52s.05.03.07.05c.28.28.56.56.83.85.23.25.39.54.52.85.17.42.24.86.24,1.32,0,.34,0,.68,0,1.02,0,.19.03.37.12.53.2.35.51.51.91.52.33,0,.66,0,.99,0,.21,0,.41.04.59.15.26.16.41.4.46.7.04.26,0,.51-.14.74-.16.26-.4.43-.71.45-.58.03-1.17.06-1.75-.04-.58-.1-1.09-.35-1.52-.74-.43-.39-.72-.86-.88-1.42-.09-.3-.12-.61-.13-.91,0-.37,0-.74,0-1.11,0-.33-.11-.6-.35-.83-.46-.44-.91-.89-1.37-1.34-.46-.45-.46-1.13,0-1.58.46-.45.92-.91,1.39-1.36.23-.22.33-.48.33-.79,0-.36,0-.73,0-1.09,0-.47.08-.92.26-1.35.17-.38.4-.71.7-1,.36-.34.78-.58,1.25-.71.29-.08.59-.12.89-.13.33,0,.66,0,.99,0,.25,0,.49.06.69.23.25.21.36.49.36.8,0,.32-.11.6-.37.81-.2.16-.44.22-.69.22-.33,0-.66,0-.99,0-.33,0-.6.11-.82.37-.16.2-.22.43-.22.68,0,.39,0,.77,0,1.16,0,.74-.22,1.41-.7,1.98-.27.32-.58.61-.87.91-.02.02-.05.04-.07.06,0,.01,0,.02,0,.03Z"/></g></svg>