<?xml version="1.0" encoding="UTF-8"?><svg xmlns="http://www.w3.org/2000/svg" viewBox="0 0 64 64"><title>Run code icon - Uncanny Automator</title><g id="a"><rect width="64" height="64" style="fill:none; stroke-width:0px;"/></g><g id="b"><g id="c"><rect width="64" height="64" rx="8" ry="8" style="fill:#0790e8; stroke-width:0px;"/></g></g><g id="d"><path d="m10.72,19.06c-.95-.95-.95-2.5,0-3.45.95-.95,2.51-.95,3.46,0l14.67,14.67c.95.95.95,2.51,0,3.46l-14.67,14.67c-.95.95-2.51.95-3.46,0s-.95-2.51,0-3.46l12.93-12.94-12.93-12.94Zm18.84,25.16h22c1.35,0,2.44,1.09,2.44,2.44s-1.09,2.44-2.44,2.44h-22c-1.35,0-2.44-1.09-2.44-2.44s1.09-2.44,2.44-2.44Z" style="fill:#fff; stroke-width:0px;"/></g></svg>
