<?xml version="1.0" encoding="UTF-8"?><svg xmlns="http://www.w3.org/2000/svg" viewBox="0 0 64 64"><defs><style>.cls-1{fill:none;}.cls-2{fill:#fff;}.cls-3{fill:#0790e8;}</style></defs><title>CSV icon - Uncanny Automator</title><g id="Transparent_layer"><rect class="cls-1" width="64" height="64"/></g><g id="Background"><g id="Layer_2"><rect class="cls-3" width="64" height="64" rx="8" ry="8"/></g></g><g id="CSV"><path class="cls-2" d="M48.5,23.76c0,.1,0,.16,0,.23,0,8.12,0,16.24,0,24.36,0,1.68-.61,3.12-1.89,4.26-.95.84-2.05,1.28-3.3,1.37-.33.02-.67.03-1,.03-7.04,0-14.08,0-21.12,0-1.33,0-2.55-.37-3.6-1.23-1.09-.9-1.79-2.03-1.98-3.44-.06-.43-.09-.88-.09-1.31,0-10.78,0-21.56,0-32.34,0-1.33.37-2.55,1.23-3.59.9-1.09,2.03-1.78,3.44-1.98.42-.06.84-.09,1.27-.09,4.36,0,8.72,0,13.08,0,.07,0,.13,0,.22,0v.23c0,3.54,0,7.07,0,10.61,0,.38.02.76.16,1.13.35.96,1.03,1.54,2.04,1.73.24.05.49.06.73.06,3.53,0,7.06,0,10.59,0h.24ZM31.98,48.51c2.94,0,5.88,0,8.82,0,.1,0,.21,0,.31,0,.93-.06,1.67-.45,2.17-1.24.31-.48.41-1.02.41-1.59,0-4.53,0-9.06,0-13.59,0-.09,0-.18,0-.27-.06-.94-.47-1.68-1.28-2.18-.49-.31-1.04-.39-1.61-.39-5.64,0-11.27,0-16.91,0-.37,0-.73,0-1.1.02-.82.05-1.49.41-1.98,1.08-.38.52-.5,1.11-.5,1.75,0,4.52,0,9.04,0,13.56,0,.16,0,.33.02.49.1.82.48,1.47,1.18,1.93.5.33,1.06.44,1.64.44,2.94,0,5.89,0,8.83,0Z"/><path class="cls-2" d="M48.42,20.99h-10.91v-10.91c3.63,3.63,7.27,7.27,10.91,10.91Z"/><path class="cls-2" d="M23.08,38.86v-4.09h4.09v4.09h-4.09Z"/><path class="cls-2" d="M34.05,38.86h-4.09v-4.09h4.09v4.09Z"/><path class="cls-2" d="M36.83,34.77h4.09v4.09h-4.09v-4.09Z"/><path class="cls-2" d="M23.08,41.64h4.09v4.09h-4.09v-4.09Z"/><path class="cls-2" d="M29.96,41.64h4.09v4.09h-4.09v-4.09Z"/><path class="cls-2" d="M36.83,45.73v-4.09h4.09v4.09h-4.09Z"/></g></svg>