<?xml version="1.0" encoding="UTF-8"?><svg xmlns="http://www.w3.org/2000/svg" viewBox="0 0 64 64"><title>Run now icon - Uncanny Automator</title><g id="a"><rect width="64" height="64" style="fill:none; stroke-width:0px;"/></g><g id="b"><g id="c"><rect width="64" height="64" rx="8" ry="8" style="fill:#0790e8; stroke-width:0px;"/></g></g><g id="d"><path d="m51.89,44.37l-.65.74-2.59,2.98h0l-.21.25c-.2.23-.41.45-.63.64-2.46,2.31-5.67,3.36-8.86,2.84l-6.8-1.11c-.66-.11-1.22-.53-1.57-1.12,0,0-.01-.02-.01-.03-.01-.02-.02-.04-.03-.06-.01-.03-.03-.05-.04-.08-.03-.06-.06-.13-.09-.2-.01-.03-.02-.06-.03-.08-.01-.04-.03-.08-.04-.12-.01-.03-.02-.06-.03-.1,0-.03-.01-.06-.02-.09-.01-.04-.02-.09-.03-.14,0-.03-.01-.08-.02-.12,0-.04-.01-.08-.01-.12s0-.08-.01-.12c0-.03,0-.08,0-.11h0v-.12c0-.12,0-.25.02-.38,0-.03,0-.07.01-.1,0-.03,0-.06.01-.1,0-.03.01-.06.02-.09v-.03s.01-.05.02-.08c.03-.1.06-.2.09-.3,0-.02.02-.05.03-.07h0s.02-.06.03-.08c.03-.07.06-.14.1-.2.01-.03.03-.05.04-.08.03-.06.07-.11.1-.16.01-.01.02-.03.03-.04.03-.05.07-.1.11-.14.02-.02.03-.04.06-.07h0s.04-.04.06-.06.04-.04.06-.06c.08-.08.15-.14.23-.2.02-.01.05-.03.07-.05h0s.06-.03.08-.06h0s.06-.03.08-.05c.02-.01.05-.03.07-.03.02-.01.05-.02.07-.03h0s.05-.02.08-.03c.05-.02.1-.04.16-.06h1.38l4.86.8-.69-.8-2.96-3.41-9.41-10.82c-.89-1.03-.89-2.7,0-3.72.89-1.03,2.35-1.03,3.23,0l6,6.9c.03-.75.3-1.49.8-2.06.07-.08.14-.15.21-.22.03-.03.08-.07.11-.1.03-.03.08-.06.11-.09s.08-.06.12-.08c.04-.03.08-.06.12-.08.08-.05.16-.09.24-.13.04-.02.08-.03.12-.06.06-.03.12-.05.19-.07.04-.01.09-.03.13-.03.34-.08.69-.1,1.03-.03.05,0,.1.02.14.03.07.02.14.04.21.06.12.04.23.09.34.15-.02-.85.24-1.69.8-2.34.06-.06.11-.12.17-.18.01-.01.03-.02.03-.03h0s.05-.04.07-.06c.03-.03.06-.05.08-.07.03-.02.06-.04.08-.06.01-.01.03-.02.04-.03h0s.06-.04.09-.06c.07-.05.14-.09.21-.12.03-.02.08-.03.11-.06.03-.01.08-.03.11-.05.08-.03.15-.06.22-.08.03-.01.08-.02.11-.03.03,0,.08-.02.12-.03.03,0,.06-.01.09-.01h.04s.06,0,.09-.01h0c.72-.08,1.46.17,2.04.75.01-.35.08-.69.2-1.03h0s.03-.08.04-.12c0-.01,0-.03.01-.03.01-.03.03-.08.05-.11,0,0,0-.01,0-.02.01-.03.03-.06.05-.1,0-.02.02-.03.03-.06.01-.02.02-.04.03-.06s.02-.04.03-.06c0-.01.01-.03.03-.04.02-.03.03-.06.06-.09.03-.05.07-.1.1-.14.02-.03.04-.06.06-.08.03-.03.06-.08.09-.11.56-.65,1.31-.96,2.04-.92h.1s.1,0,.15.02c.08.01.17.03.25.05h.05c.09.04.18.07.26.1.03.01.06.03.1.04l.21.1s.03.02.05.03c.02.01.03.02.06.03.03.01.05.03.08.05h0c.19.13.38.3.54.48l4.53,5.22c2.86,3.29,2.86,8.63,0,11.92l.03-.04Z" style="fill:#fff; stroke-width:0px;"/><path d="m27.32,47.26c.08-.59.22-1.16.44-1.69h-12.5c-.72,0-1.31-.61-1.31-1.34v-26.81c0-.74.59-1.34,1.31-1.34h26.3c.72,0,1.31.61,1.31,1.34v6.25c.78-.45,1.64-.69,2.55-.69.48,0,.95.07,1.4.2v-5.76c0-2.96-2.36-5.36-5.26-5.36H15.26c-2.9,0-5.26,2.41-5.26,5.37v26.81c0,2.96,2.36,5.36,5.26,5.36h12.16c-.17-.75-.21-1.54-.11-2.33h0Z" style="fill:#fff; stroke-width:0px;"/><path d="m28.91,43.73c.06-.06.1-.11.16-.17.46-.45.98-.81,1.53-1.05l-7.64-8.8c-2.03-2.33-2.03-6.13,0-8.46.98-1.13,2.29-1.75,3.68-1.75s2.7.62,3.68,1.75l3.52,4.05c.67-.53,1.44-.87,2.25-1.03.23-.42.49-.81.8-1.16.75-.87,1.68-1.46,2.68-1.73-2.04-4.18-6.27-7.05-11.16-7.05-6.88,0-12.46,5.69-12.46,12.7s5.58,12.7,12.46,12.7c.17,0,.34,0,.51-.01h0Z" style="fill:#fff; stroke-width:0px;"/></g></svg>