<?xml version="1.0" encoding="UTF-8"?><svg xmlns="http://www.w3.org/2000/svg" viewBox="0 0 64 64"><defs><style>.cls-1{fill:none;}.cls-1,.cls-2,.cls-3{stroke-width:0px;}.cls-2{fill:#0790e8;}.cls-3{fill:#fff;}</style></defs><title>Schedule icon - Uncanny Automator</title><g id="Transparent_layer"><rect class="cls-1" width="64" height="64"/></g><g id="Background"><g id="Layer_2"><rect class="cls-2" width="64" height="64" rx="8" ry="8"/></g></g><g id="Schedule"><path class="cls-3" d="M19.7,12.44c1.07,0,1.83.84,1.83,1.83v3.06h11.08v-3.06c0-.99.76-1.83,1.83-1.83.99,0,1.83.84,1.83,1.83v3.06h3.06c2.67,0,4.89,2.22,4.89,4.89v4.89H13.59v19.56c0,.69.61,1.22,1.22,1.22h16.88c.92,1.45,2.14,2.75,3.51,3.67H14.89c-2.75,0-4.89-2.14-4.89-4.89v-24.44c0-2.67,2.14-4.89,4.89-4.89h3.06v-3.06c0-.99.76-1.83,1.83-1.83h-.08ZM54,40.56c0,6.11-4.97,11-11,11s-11.08-4.89-11.08-11,4.97-11,11.08-11,11,4.97,11,11ZM41.7,35.67v4.89c0,.69.61,1.22,1.22,1.22h3.74c.61,0,1.22-.53,1.22-1.22,0-.61-.61-1.22-1.22-1.22h-2.52v-3.67c0-.61-.53-1.22-1.22-1.22-.61,0-1.22.61-1.22,1.22Z"/></g></svg>