<?xml version="1.0" encoding="UTF-8"?><svg xmlns="http://www.w3.org/2000/svg" viewBox="0 0 64 64"><title>Generator icon - Uncanny Automator</title><g id="a"><rect width="64" height="64" style="fill:none; stroke-width:0px;"/></g><g id="b"><g id="c"><rect width="64" height="64" rx="8" ry="8" style="fill:#0790e8; stroke-width:0px;"/></g></g><g id="d"><line x1="32" y1="24.44" x2="32" y2="39.56" style="fill:#fff; stroke:#fff; stroke-linecap:round; stroke-miterlimit:10; stroke-width:3.66px;"/><line x1="24.44" y1="32" x2="39.56" y2="32" style="fill:#fff; stroke:#fff; stroke-linecap:round; stroke-miterlimit:10; stroke-width:3.66px;"/><path d="M19.91,32.02c-.12-.21-.29-.39-.5-.52-.21-.12-.45-.19-.7-.19h-.8c-.13,0-.26-.03-.38-.08-.12-.05-.23-.13-.31-.23-.09-.1-.15-.21-.19-.34-.04-.13-.05-.26-.03-.39.38-2.95,1.63-5.72,3.58-7.97,1.95-2.25,4.52-3.87,7.39-4.66,2.87-.79,5.91-.72,8.73.2,2.83.93,5.32,2.66,7.16,5,.3.37.74.61,1.22.66.48.05.96-.09,1.33-.39s.62-.73.68-1.21c.06-.48-.07-.96-.36-1.34-2.33-2.94-5.48-5.12-9.06-6.26-3.58-1.13-7.41-1.17-11.01-.11-3.6,1.06-6.8,3.18-9.18,6.08-2.38,2.9-3.85,6.44-4.2,10.18-.02.23-.13.44-.3.59-.17.15-.39.24-.62.24h-1c-.25,0-.49.07-.7.19-.21.12-.39.3-.5.52-.12.21-.18.46-.17.7,0,.25.08.48.21.69l3.67,5.87c.12.2.3.36.5.47.2.11.43.17.67.17s.46-.06.67-.17c.2-.11.38-.28.5-.47l3.67-5.87c.13-.21.2-.44.21-.69,0-.24-.05-.48-.17-.7Z" style="fill:#fff; stroke-width:0px;"/><path d="M53.79,30.58l-3.67-5.87c-.13-.19-.31-.34-.51-.44-.2-.1-.43-.16-.66-.16s-.45.05-.66.16c-.2.1-.38.26-.51.44l-3.67,5.87c-.13.21-.2.45-.21.69,0,.25.05.49.17.7.12.21.29.39.5.52.21.12.45.19.7.19h.8c.13,0,.26.03.38.08.12.05.23.13.31.23.09.1.15.21.19.34.04.13.05.26.03.39-.38,2.95-1.63,5.72-3.58,7.97-1.95,2.25-4.52,3.87-7.39,4.66-2.87.79-5.91.72-8.73-.2-2.83-.93-5.32-2.66-7.16-5-.3-.37-.74-.61-1.22-.66-.48-.05-.96.09-1.33.39-.38.3-.62.73-.68,1.21-.06.48.07.96.36,1.34,2.33,2.94,5.48,5.12,9.06,6.26,3.58,1.13,7.41,1.17,11.01.1,3.6-1.07,6.8-3.19,9.18-6.08,2.38-2.9,3.84-6.45,4.19-10.18.02-.23.13-.44.3-.59.17-.15.39-.24.62-.24h1c.25,0,.49-.07.7-.19.21-.12.39-.3.5-.52s.18-.46.17-.7c0-.25-.08-.48-.21-.69h0Z" style="fill:#fff; stroke-width:0px;"/></g></svg>