<?xml version="1.0" encoding="UTF-8"?><svg xmlns="http://www.w3.org/2000/svg" viewBox="0 0 64 64"><title>Magic Button icon - Uncanny Automator</title><g id="a"><rect width="64" height="64" style="fill:none; stroke-width:0px;"/></g><g id="b"><g id="c"><rect width="64" height="64" rx="8" ry="8" style="fill:#0790e8; stroke-width:0px;"/></g></g><g id="d"><path d="m28.98,14.75l-3.05,1.14c-.24.09-.4.32-.4.58s.16.49.4.58l3.05,1.14,1.14,3.05c.09.24.32.4.58.4s.49-.16.58-.4l1.14-3.05,3.05-1.14c.24-.09.4-.32.4-.58s-.16-.49-.4-.58l-3.05-1.14-1.14-3.05c-.09-.24-.32-.4-.58-.4s-.49.16-.58.4l-1.14,3.05Zm-15.25,28.53c-1.51,1.51-1.51,3.97,0,5.49l2.8,2.8c1.51,1.51,3.97,1.51,5.49,0l30.84-30.85c1.51-1.51,1.51-3.97,0-5.49l-2.8-2.79c-1.51-1.51-3.97-1.51-5.49,0l-30.84,30.84Zm35.47-25.3l-8.49,8.49-1.88-1.88,8.49-8.49s1.88,1.88,1.88,1.88Zm-38.59,2.8c-.36.14-.61.49-.61.87s.24.74.61.87l4.57,1.71,1.71,4.57c.14.36.49.61.87.61s.74-.24.87-.61l1.71-4.57,4.57-1.71c.36-.14.61-.49.61-.87s-.24-.74-.61-.87l-4.57-1.71-1.71-4.57c-.14-.36-.49-.61-.87-.61s-.74.24-.87.61l-1.71,4.57-4.57,1.71Zm28.47,20.71c-.36.14-.61.49-.61.87s.24.74.61.87l4.57,1.71,1.71,4.57c.14.36.49.61.87.61s.74-.24.87-.61l1.71-4.57,4.57-1.71c.36-.14.61-.49.61-.87s-.24-.74-.61-.87l-4.57-1.71-1.71-4.57c-.14-.36-.49-.61-.87-.61s-.74.24-.87.61l-1.71,4.57-4.57,1.71Z" style="fill:#fff; stroke-width:0px;"/></g></svg>
